<svg xmlns="http://www.w3.org/2000/svg" version="1.1" xmlns:xlink="http://www.w3.org/1999/xlink" xmlns:svgjs="http://svgjs.com/svgjs" width="2560" height="1440" preserveAspectRatio="none" viewBox="0 0 2560 1440"><g mask="url(&quot;#SvgjsMask1333&quot;)" fill="none"><use xlink:href="#SvgjsG1335" transform="translate(0, 0)" fill="rgba(242, 95, 76, 1)"></use><use xlink:href="#SvgjsG1335" transform="translate(0, 768)" fill="rgba(242, 95, 76, 1)"></use><use xlink:href="#SvgjsG1335" transform="translate(768, 0)" fill="rgba(229, 49, 112, 1)"></use><use xlink:href="#SvgjsG1335" transform="translate(768, 768)" fill="rgba(255, 137, 6, 1)"></use><use xlink:href="#SvgjsG1335" transform="translate(1536, 0)" fill="rgba(242, 95, 76, 1)"></use><use xlink:href="#SvgjsG1335" transform="translate(1536, 768)" fill="rgba(242, 95, 76, 1)"></use><use xlink:href="#SvgjsG1335" transform="translate(2304, 0)" fill="rgba(255, 137, 6, 1)"></use><use xlink:href="#SvgjsG1335" transform="translate(2304, 768)" fill="rgba(242, 95, 76, 1)"></use></g><defs><mask id="SvgjsMask1333"><rect width="2560" height="1440" fill="#ffffff"></rect></mask><g id="SvgjsG1334"><path d="M4.096 1.54l10.36 10.364L11.906 14.46 1.54 4.096 4.096 1.54z" fill-rule="evenodd"></path><path d="M11.904 1.54L14.46 4.1 4.096 14.46 1.54 11.904 11.906 1.544z" fill-rule="evenodd"></path></g><g id="SvgjsG1335"><use xlink:href="#SvgjsG1334" transform="translate(0, 0) scale(1.2)" fill="rgba(255, 137, 6, 1)"></use><use xlink:href="#SvgjsG1334" transform="translate(0, 76.8) scale(1.2)" fill="rgba(229, 49, 112, 1)"></use><use xlink:href="#SvgjsG1334" transform="translate(0, 153.6) scale(1.2)" fill="rgba(242, 95, 76, 1)"></use><use xlink:href="#SvgjsG1334" transform="translate(0, 230.39999999999998) scale(1.2)" fill="rgba(255, 137, 6, 1)"></use><use xlink:href="#SvgjsG1334" transform="translate(0, 307.2) scale(1.2)" fill="rgba(242, 95, 76, 1)"></use><use xlink:href="#SvgjsG1334" transform="translate(0, 384) scale(1.2)" fill="rgba(229, 49, 112, 1)"></use><use xlink:href="#SvgjsG1334" transform="translate(0, 460.79999999999995) scale(1.2)" fill="rgba(229, 49, 112, 1)"></use><use xlink:href="#SvgjsG1334" transform="translate(0, 537.6) scale(1.2)" fill="rgba(255, 137, 6, 1)"></use><use xlink:href="#SvgjsG1334" transform="translate(0, 614.4) scale(1.2)" fill="rgba(229, 49, 112, 1)"></use><use xlink:href="#SvgjsG1334" transform="translate(0, 691.1999999999999) scale(1.2)" fill="rgba(242, 95, 76, 1)"></use><use xlink:href="#SvgjsG1334" transform="translate(76.8, 0) scale(1.2)" fill="rgba(229, 49, 112, 1)"></use><use xlink:href="#SvgjsG1334" transform="translate(76.8, 76.8) scale(1.2)" fill="rgba(255, 137, 6, 1)"></use><use xlink:href="#SvgjsG1334" transform="translate(76.8, 153.6) scale(1.2)" fill="rgba(229, 49, 112, 1)"></use><use xlink:href="#SvgjsG1334" transform="translate(76.8, 230.39999999999998) scale(1.2)" fill="rgba(242, 95, 76, 1)"></use><use xlink:href="#SvgjsG1334" transform="translate(76.8, 307.2) scale(1.2)" fill="rgba(242, 95, 76, 1)"></use><use xlink:href="#SvgjsG1334" transform="translate(76.8, 384) scale(1.2)" fill="rgba(229, 49, 112, 1)"></use><use xlink:href="#SvgjsG1334" transform="translate(76.8, 460.79999999999995) scale(1.2)" fill="rgba(229, 49, 112, 1)"></use><use xlink:href="#SvgjsG1334" transform="translate(76.8, 537.6) scale(1.2)" fill="rgba(242, 95, 76, 1)"></use><use xlink:href="#SvgjsG1334" transform="translate(76.8, 614.4) scale(1.2)" fill="rgba(229, 49, 112, 1)"></use><use xlink:href="#SvgjsG1334" transform="translate(76.8, 691.1999999999999) scale(1.2)" fill="rgba(229, 49, 112, 1)"></use><use xlink:href="#SvgjsG1334" transform="translate(153.6, 0) scale(1.2)" fill="rgba(242, 95, 76, 1)"></use><use xlink:href="#SvgjsG1334" transform="translate(153.6, 76.8) scale(1.2)" fill="rgba(242, 95, 76, 1)"></use><use xlink:href="#SvgjsG1334" transform="translate(153.6, 153.6) scale(1.2)" fill="rgba(255, 137, 6, 1)"></use><use xlink:href="#SvgjsG1334" transform="translate(153.6, 230.39999999999998) scale(1.2)" fill="rgba(242, 95, 76, 1)"></use><use xlink:href="#SvgjsG1334" transform="translate(153.6, 307.2) scale(1.2)" fill="rgba(242, 95, 76, 1)"></use><use xlink:href="#SvgjsG1334" transform="translate(153.6, 384) scale(1.2)" fill="rgba(242, 95, 76, 1)"></use><use xlink:href="#SvgjsG1334" transform="translate(153.6, 460.79999999999995) scale(1.2)" fill="rgba(242, 95, 76, 1)"></use><use xlink:href="#SvgjsG1334" transform="translate(153.6, 537.6) scale(1.2)" fill="rgba(242, 95, 76, 1)"></use><use xlink:href="#SvgjsG1334" transform="translate(153.6, 614.4) scale(1.2)" fill="rgba(255, 137, 6, 1)"></use><use xlink:href="#SvgjsG1334" transform="translate(153.6, 691.1999999999999) scale(1.2)" fill="rgba(242, 95, 76, 1)"></use><use xlink:href="#SvgjsG1334" transform="translate(230.39999999999998, 0) scale(1.2)" fill="rgba(242, 95, 76, 1)"></use><use xlink:href="#SvgjsG1334" transform="translate(230.39999999999998, 76.8) scale(1.2)" fill="rgba(255, 137, 6, 1)"></use><use xlink:href="#SvgjsG1334" transform="translate(230.39999999999998, 153.6) scale(1.2)" fill="rgba(255, 137, 6, 1)"></use><use xlink:href="#SvgjsG1334" transform="translate(230.39999999999998, 230.39999999999998) scale(1.2)" fill="rgba(229, 49, 112, 1)"></use><use xlink:href="#SvgjsG1334" transform="translate(230.39999999999998, 307.2) scale(1.2)" fill="rgba(242, 95, 76, 1)"></use><use xlink:href="#SvgjsG1334" transform="translate(230.39999999999998, 384) scale(1.2)" fill="rgba(242, 95, 76, 1)"></use><use xlink:href="#SvgjsG1334" transform="translate(230.39999999999998, 460.79999999999995) scale(1.2)" fill="rgba(242, 95, 76, 1)"></use><use xlink:href="#SvgjsG1334" transform="translate(230.39999999999998, 537.6) scale(1.2)" fill="rgba(242, 95, 76, 1)"></use><use xlink:href="#SvgjsG1334" transform="translate(230.39999999999998, 614.4) scale(1.2)" fill="rgba(242, 95, 76, 1)"></use><use xlink:href="#SvgjsG1334" transform="translate(230.39999999999998, 691.1999999999999) scale(1.2)" fill="rgba(229, 49, 112, 1)"></use><use xlink:href="#SvgjsG1334" transform="translate(307.2, 0) scale(1.2)" fill="rgba(255, 137, 6, 1)"></use><use xlink:href="#SvgjsG1334" transform="translate(307.2, 76.8) scale(1.2)" fill="rgba(255, 137, 6, 1)"></use><use xlink:href="#SvgjsG1334" transform="translate(307.2, 153.6) scale(1.2)" fill="rgba(242, 95, 76, 1)"></use><use xlink:href="#SvgjsG1334" transform="translate(307.2, 230.39999999999998) scale(1.2)" fill="rgba(229, 49, 112, 1)"></use><use xlink:href="#SvgjsG1334" transform="translate(307.2, 307.2) scale(1.2)" fill="rgba(255, 137, 6, 1)"></use><use xlink:href="#SvgjsG1334" transform="translate(307.2, 384) scale(1.2)" fill="rgba(255, 137, 6, 1)"></use><use xlink:href="#SvgjsG1334" transform="translate(307.2, 460.79999999999995) scale(1.2)" fill="rgba(255, 137, 6, 1)"></use><use xlink:href="#SvgjsG1334" transform="translate(307.2, 537.6) scale(1.2)" fill="rgba(255, 137, 6, 1)"></use><use xlink:href="#SvgjsG1334" transform="translate(307.2, 614.4) scale(1.2)" fill="rgba(229, 49, 112, 1)"></use><use xlink:href="#SvgjsG1334" transform="translate(307.2, 691.1999999999999) scale(1.2)" fill="rgba(255, 137, 6, 1)"></use><use xlink:href="#SvgjsG1334" transform="translate(384, 0) scale(1.2)" fill="rgba(229, 49, 112, 1)"></use><use xlink:href="#SvgjsG1334" transform="translate(384, 76.8) scale(1.2)" fill="rgba(242, 95, 76, 1)"></use><use xlink:href="#SvgjsG1334" transform="translate(384, 153.6) scale(1.2)" fill="rgba(242, 95, 76, 1)"></use><use xlink:href="#SvgjsG1334" transform="translate(384, 230.39999999999998) scale(1.2)" fill="rgba(229, 49, 112, 1)"></use><use xlink:href="#SvgjsG1334" transform="translate(384, 307.2) scale(1.2)" fill="rgba(255, 137, 6, 1)"></use><use xlink:href="#SvgjsG1334" transform="translate(384, 384) scale(1.2)" fill="rgba(229, 49, 112, 1)"></use><use xlink:href="#SvgjsG1334" transform="translate(384, 460.79999999999995) scale(1.2)" fill="rgba(242, 95, 76, 1)"></use><use xlink:href="#SvgjsG1334" transform="translate(384, 537.6) scale(1.2)" fill="rgba(255, 137, 6, 1)"></use><use xlink:href="#SvgjsG1334" transform="translate(384, 614.4) scale(1.2)" fill="rgba(229, 49, 112, 1)"></use><use xlink:href="#SvgjsG1334" transform="translate(384, 691.1999999999999) scale(1.2)" fill="rgba(255, 137, 6, 1)"></use><use xlink:href="#SvgjsG1334" transform="translate(460.79999999999995, 0) scale(1.2)" fill="rgba(255, 137, 6, 1)"></use><use xlink:href="#SvgjsG1334" transform="translate(460.79999999999995, 76.8) scale(1.2)" fill="rgba(229, 49, 112, 1)"></use><use xlink:href="#SvgjsG1334" transform="translate(460.79999999999995, 153.6) scale(1.2)" fill="rgba(255, 137, 6, 1)"></use><use xlink:href="#SvgjsG1334" transform="translate(460.79999999999995, 230.39999999999998) scale(1.2)" fill="rgba(242, 95, 76, 1)"></use><use xlink:href="#SvgjsG1334" transform="translate(460.79999999999995, 307.2) scale(1.2)" fill="rgba(255, 137, 6, 1)"></use><use xlink:href="#SvgjsG1334" transform="translate(460.79999999999995, 384) scale(1.2)" fill="rgba(255, 137, 6, 1)"></use><use xlink:href="#SvgjsG1334" transform="translate(460.79999999999995, 460.79999999999995) scale(1.2)" fill="rgba(229, 49, 112, 1)"></use><use xlink:href="#SvgjsG1334" transform="translate(460.79999999999995, 537.6) scale(1.2)" fill="rgba(242, 95, 76, 1)"></use><use xlink:href="#SvgjsG1334" transform="translate(460.79999999999995, 614.4) scale(1.2)" fill="rgba(255, 137, 6, 1)"></use><use xlink:href="#SvgjsG1334" transform="translate(460.79999999999995, 691.1999999999999) scale(1.2)" fill="rgba(255, 137, 6, 1)"></use><use xlink:href="#SvgjsG1334" transform="translate(537.6, 0) scale(1.2)" fill="rgba(229, 49, 112, 1)"></use><use xlink:href="#SvgjsG1334" transform="translate(537.6, 76.8) scale(1.2)" fill="rgba(242, 95, 76, 1)"></use><use xlink:href="#SvgjsG1334" transform="translate(537.6, 153.6) scale(1.2)" fill="rgba(242, 95, 76, 1)"></use><use xlink:href="#SvgjsG1334" transform="translate(537.6, 230.39999999999998) scale(1.2)" fill="rgba(255, 137, 6, 1)"></use><use xlink:href="#SvgjsG1334" transform="translate(537.6, 307.2) scale(1.2)" fill="rgba(229, 49, 112, 1)"></use><use xlink:href="#SvgjsG1334" transform="translate(537.6, 384) scale(1.2)" fill="rgba(255, 137, 6, 1)"></use><use xlink:href="#SvgjsG1334" transform="translate(537.6, 460.79999999999995) scale(1.2)" fill="rgba(255, 137, 6, 1)"></use><use xlink:href="#SvgjsG1334" transform="translate(537.6, 537.6) scale(1.2)" fill="rgba(242, 95, 76, 1)"></use><use xlink:href="#SvgjsG1334" transform="translate(537.6, 614.4) scale(1.2)" fill="rgba(242, 95, 76, 1)"></use><use xlink:href="#SvgjsG1334" transform="translate(537.6, 691.1999999999999) scale(1.2)" fill="rgba(229, 49, 112, 1)"></use><use xlink:href="#SvgjsG1334" transform="translate(614.4, 0) scale(1.2)" fill="rgba(242, 95, 76, 1)"></use><use xlink:href="#SvgjsG1334" transform="translate(614.4, 76.8) scale(1.2)" fill="rgba(229, 49, 112, 1)"></use><use xlink:href="#SvgjsG1334" transform="translate(614.4, 153.6) scale(1.2)" fill="rgba(229, 49, 112, 1)"></use><use xlink:href="#SvgjsG1334" transform="translate(614.4, 230.39999999999998) scale(1.2)" fill="rgba(229, 49, 112, 1)"></use><use xlink:href="#SvgjsG1334" transform="translate(614.4, 307.2) scale(1.2)" fill="rgba(229, 49, 112, 1)"></use><use xlink:href="#SvgjsG1334" transform="translate(614.4, 384) scale(1.2)" fill="rgba(229, 49, 112, 1)"></use><use xlink:href="#SvgjsG1334" transform="translate(614.4, 460.79999999999995) scale(1.2)" fill="rgba(229, 49, 112, 1)"></use><use xlink:href="#SvgjsG1334" transform="translate(614.4, 537.6) scale(1.2)" fill="rgba(255, 137, 6, 1)"></use><use xlink:href="#SvgjsG1334" transform="translate(614.4, 614.4) scale(1.2)" fill="rgba(255, 137, 6, 1)"></use><use xlink:href="#SvgjsG1334" transform="translate(614.4, 691.1999999999999) scale(1.2)" fill="rgba(242, 95, 76, 1)"></use><use xlink:href="#SvgjsG1334" transform="translate(691.1999999999999, 0) scale(1.2)" fill="rgba(229, 49, 112, 1)"></use><use xlink:href="#SvgjsG1334" transform="translate(691.1999999999999, 76.8) scale(1.2)" fill="rgba(229, 49, 112, 1)"></use><use xlink:href="#SvgjsG1334" transform="translate(691.1999999999999, 153.6) scale(1.2)" fill="rgba(229, 49, 112, 1)"></use><use xlink:href="#SvgjsG1334" transform="translate(691.1999999999999, 230.39999999999998) scale(1.2)" fill="rgba(242, 95, 76, 1)"></use><use xlink:href="#SvgjsG1334" transform="translate(691.1999999999999, 307.2) scale(1.2)" fill="rgba(229, 49, 112, 1)"></use><use xlink:href="#SvgjsG1334" transform="translate(691.1999999999999, 384) scale(1.2)" fill="rgba(229, 49, 112, 1)"></use><use xlink:href="#SvgjsG1334" transform="translate(691.1999999999999, 460.79999999999995) scale(1.2)" fill="rgba(229, 49, 112, 1)"></use><use xlink:href="#SvgjsG1334" transform="translate(691.1999999999999, 537.6) scale(1.2)" fill="rgba(242, 95, 76, 1)"></use><use xlink:href="#SvgjsG1334" transform="translate(691.1999999999999, 614.4) scale(1.2)" fill="rgba(229, 49, 112, 1)"></use><use xlink:href="#SvgjsG1334" transform="translate(691.1999999999999, 691.1999999999999) scale(1.2)" fill="rgba(255, 137, 6, 1)"></use></g></defs></svg>